<svg xmlns="http://www.w3.org/2000/svg" viewBox="0 0 256 256">
  <defs>
    <linearGradient id="frame" x1="0" y1="0" x2="1" y2="1">
      <stop offset="0%" stop-color="#ff8c5a"/>
      <stop offset="100%" stop-color="#ffd3ad"/>
    </linearGradient>
    <linearGradient id="pulse" x1="0" y1="0.5" x2="1" y2="0.5">
      <stop offset="0%" stop-color="#ffe2c5"/>
      <stop offset="100%" stop-color="#ff7045"/>
    </linearGradient>
  </defs>
  <rect width="256" height="256" rx="64" fill="#090b10"/>
  <rect x="28" y="28" width="200" height="200" rx="52" fill="#11151f" stroke="url(#frame)" stroke-opacity="0.28" stroke-width="6"/>
  <circle cx="128" cy="128" r="72" fill="none" stroke="#fff1e1" stroke-opacity="0.08" stroke-width="2"/>
  <circle cx="128" cy="128" r="52" fill="none" stroke="#fff1e1" stroke-opacity="0.1" stroke-width="2"/>
  <path d="M100 110c0-16 13-29 28-29s28 13 28 29v12h8c6.6 0 12 5.4 12 12v34c0 6.6-5.4 12-12 12H92c-6.6 0-12-5.4-12-12v-34c0-6.6 5.4-12 12-12h8v-12Zm18 0v12h20v-12c0-5.5-4.5-10-10-10s-10 4.5-10 10Z" fill="url(#frame)"/>
  <path d="M72 150h34l14-36 20 72 16-36h28" fill="none" stroke="url(#pulse)" stroke-linecap="round" stroke-linejoin="round" stroke-width="12"/>
  <circle cx="188" cy="68" r="10" fill="#ff7045"/>
</svg>
